# xmcd CD database file
#
# Track frame offsets:
#	150
#	15910
#	29252
#	42029
#	56138
#	67122
#	83039
#	97242
#	120127
#	147403
#	156562
#	168738
#	192183
#	201567
#	216288
#	231223
#	253306
#	264622
#	282954
#	298132
#	316778
#	332788
#
# Disc length: 4656 seconds
#
# Revision: 0
# Processed by: cddbd v1.5.2PL0 Copyright (c) Steve Scherf et al.
# Submitted via: CDex 1.70beta2
#
DISCID=57122e16
DTITLE=Jazz Sélection - Jazz à la française
DYEAR=2007
DGENRE=Jazz
TTITLE0=Lafitte - Stardust
TTITLE1=Lafitte - Get happy
TTITLE2=Lafitte - If I had you
TTITLE3=Lafitte - La nuit des lapins blêmes
TTITLE4=Lafitte - Heaven
TTITLE5=Lafitte - Teemoo
TTITLE6=Lafitte - Passion flower
TTITLE7=Lafitte - Bonsoir, jolie madame
TTITLE8=Lafitte - Que reste-t-il de nos amours
TTITLE9=Accordéon - Flambée montalbanaise
TTITLE10=Accordéon - Lorsque Django jouait
TTITLE11=Accordéon - Valse des crayons
TTITLE12=Accordéon - Index
TTITLE13=Accordéon - Le chat tigré
TTITLE14=Accordéon - Lina's Blues
TTITLE15=Accordéon - Double scotch
TTITLE16=Accordéon - Joshua fit the battle of Jericho
TTITLE17=Accordéon - Avec le temps
TTITLE18=Accordéon - Clownesque
TTITLE19=Accordéon - New York tango
TTITLE20=Accordéon - Caruso
TTITLE21=Accordéon - La valse à Margaux
EXTD=YEAR: 2007
EXTT0=
EXTT1=
EXTT2=
EXTT3=
EXTT4=
EXTT5=
EXTT6=
EXTT7=
EXTT8=
EXTT9=
EXTT10=
EXTT11=
EXTT12=
EXTT13=
EXTT14=
EXTT15=
EXTT16=
EXTT17=
EXTT18=
EXTT19=
EXTT20=
EXTT21=
PLAYORDER=
